# xmcd CD database file
#
# Track frame offsets:
#	150
#	23174
#	46746
#	72891
#	98792
#	114155
#	133849
#	155979
#	178760
#	200526
#
# Disc length: 3025 seconds
#
# Revision: 1
# Processed by: cddbd v1.5.1PL0 Copyright (c) Steve Scherf et al.
# Submitted via: CDex 1.51
#
DISCID=870bcf0a
DTITLE=Salvador Candel - Luna
DYEAR=2003
DGENRE=New Age
TTITLE0=Camelot
TTITLE1=Reflejos de Luna
TTITLE2=El ritmo de la Luna
TTITLE3=Vientos del Alma
TTITLE4=Ensueño
TTITLE5=Luna de primavera
TTITLE6=Cosmos
TTITLE7=Anhelo
TTITLE8=Agua de Luna
TTITLE9=Luna de Estambul
EXTD=YEAR: 2003
EXTT0=
EXTT1=
EXTT2=
EXTT3=
EXTT4=
EXTT5=
EXTT6=
EXTT7=
EXTT8=
EXTT9=
PLAYORDER=
